<svg width="130" height="36" viewBox="0 0 130 36" fill="none" xmlns="http://www.w3.org/2000/svg">
  <defs>
    <linearGradient id="modernGradient" x1="0%" y1="0%" x2="100%" y2="0%">
      <stop offset="0%" style="stop-color:#3B82F6;stop-opacity:1" />
      <stop offset="100%" style="stop-color:#1D4ED8;stop-opacity:1" />
    </linearGradient>
  </defs>
  
  <!-- Фон -->
  <rect width="130" height="36" fill="var(--color-gray-200)"/>
  
  <!-- Геометрическая L - крупные блоки -->
  <rect x="6" y="6" width="8" height="24" fill="url(#modernGradient)"/>
  <rect x="6" y="24" width="20" height="6" fill="url(#modernGradient)"/>
  
  <!-- Геометрическая V -->
  <rect x="32" y="6" width="6" height="12" fill="url(#modernGradient)"/>
  <rect x="42" y="6" width="6" height="12" fill="url(#modernGradient)"/>
  <rect x="37" y="18" width="6" height="12" fill="url(#modernGradient)"/>
  
  <!-- Геометрическая L -->
  <rect x="54" y="6" width="6" height="24" fill="url(#modernGradient)"/>
  <rect x="54" y="24" width="18" height="6" fill="url(#modernGradient)"/>
  
  <!-- Разделитель - геометрический -->
  <rect x="78" y="12" width="3" height="12" fill="#374151"/>
  <rect x="78" y="12" width="12" height="3" fill="#374151"/>
  <rect x="78" y="21" width="12" height="3" fill="#374151"/>
  
  <!-- Геометрическая M -->
  <rect x="96" y="12" width="4" height="12" fill="#374151"/>
  <rect x="104" y="12" width="4" height="12" fill="#374151"/>
  <rect x="100" y="12" width="4" height="6" fill="#374151"/>
  
  <!-- Геометрическая A -->
  <rect x="112" y="12" width="4" height="12" fill="#374151"/>
  <rect x="112" y="12" width="12" height="4" fill="#374151"/>
  <rect x="112" y="20" width="12" height="4" fill="#374151"/>
  <rect x="120" y="12" width="4" height="12" fill="#374151"/>
  
  <!-- Геометрическая R -->
  <rect x="128" y="12" width="4" height="12" fill="#374151"/>
  <rect x="128" y="12" width="10" height="4" fill="#374151"/>
  <rect x="128" y="20" width="10" height="4" fill="#374151"/>
  <rect x="134" y="16" width="4" height="6" fill="#374151"/>
  
  <!-- Геометрическая T -->
  <rect x="140" y="12" width="4" height="12" fill="#374151"/>
  <rect x="137" y="12" width="12" height="4" fill="#374151"/>
</svg>
