<svg width="120" height="32" viewBox="0 0 120 32" fill="none" xmlns="http://www.w3.org/2000/svg">
  <defs>
    <linearGradient id="lvlGradient" x1="0%" y1="0%" x2="100%" y2="0%">
      <stop offset="0%" style="stop-color:#3B82F6;stop-opacity:1" />
      <stop offset="100%" style="stop-color:#1D4ED8;stop-opacity:1" />
    </linearGradient>
  </defs>
  
  <!-- Фон -->
  <rect width="120" height="32" fill="var(--color-gray-200)"/>
  
  <!-- Геометрическая L -->
  <rect x="4" y="4" width="6" height="24" fill="url(#lvlGradient)"/>
  <rect x="4" y="24" width="18" height="4" fill="url(#lvlGradient)"/>
  
  <!-- Геометрическая V -->
  <rect x="28" y="4" width="4" height="12" fill="url(#lvlGradient)"/>
  <rect x="36" y="4" width="4" height="12" fill="url(#lvlGradient)"/>
  <rect x="32" y="16" width="4" height="12" fill="url(#lvlGradient)"/>
  
  <!-- Геометрическая L -->
  <rect x="46" y="4" width="4" height="24" fill="url(#lvlGradient)"/>
  <rect x="46" y="24" width="16" height="4" fill="url(#lvlGradient)"/>
  
  <!-- Разделитель -->
  <rect x="68" y="8" width="2" height="16" fill="#374151"/>
  
  <!-- Геометрическая M -->
  <rect x="76" y="8" width="3" height="16" fill="#374151"/>
  <rect x="84" y="8" width="3" height="16" fill="#374151"/>
  <rect x="80" y="8" width="3" height="8" fill="#374151"/>
  
  <!-- Геометрическая A -->
  <rect x="92" y="8" width="3" height="16" fill="#374151"/>
  <rect x="92" y="8" width="12" height="3" fill="#374151"/>
  <rect x="92" y="16" width="12" height="3" fill="#374151"/>
  <rect x="101" y="8" width="3" height="16" fill="#374151"/>
  
  <!-- Геометрическая R -->
  <rect x="108" y="8" width="3" height="16" fill="#374151"/>
  <rect x="108" y="8" width="8" height="3" fill="#374151"/>
  <rect x="108" y="16" width="8" height="3" fill="#374151"/>
  <rect x="114" y="12" width="3" height="8" fill="#374151"/>
  
  <!-- Геометрическая T -->
  <rect x="120" y="8" width="3" height="16" fill="#374151"/>
  <rect x="117" y="8" width="12" height="3" fill="#374151"/>
</svg>
