<svg width="100" height="28" viewBox="0 0 100 28" fill="none" xmlns="http://www.w3.org/2000/svg">
  <defs>
    <linearGradient id="lvlGradient" x1="0%" y1="0%" x2="100%" y2="0%">
      <stop offset="0%" style="stop-color:#3B82F6;stop-opacity:1" />
      <stop offset="100%" style="stop-color:#1D4ED8;stop-opacity:1" />
    </linearGradient>
  </defs>
  
  <!-- Фон -->
  <rect width="100" height="28" fill="#E5E7EB"/>
  
  <!-- Геометрическая L -->
  <rect x="4" y="4" width="4" height="20" fill="url(#lvlGradient)"/>
  <rect x="4" y="20" width="12" height="4" fill="url(#lvlGradient)"/>
  
  <!-- Геометрическая V -->
  <rect x="22" y="4" width="3" height="10" fill="url(#lvlGradient)"/>
  <rect x="29" y="4" width="3" height="10" fill="url(#lvlGradient)"/>
  <rect x="25" y="14" width="3" height="10" fill="url(#lvlGradient)"/>
  
  <!-- Геометрическая L -->
  <rect x="38" y="4" width="3" height="20" fill="url(#lvlGradient)"/>
  <rect x="38" y="20" width="12" height="4" fill="url(#lvlGradient)"/>
  
  <!-- Разделитель -->
  <rect x="56" y="8" width="2" height="12" fill="#374151"/>
  
  <!-- Геометрическая M -->
  <rect x="64" y="8" width="2" height="12" fill="#374151"/>
  <rect x="70" y="8" width="2" height="12" fill="#374151"/>
  <rect x="67" y="8" width="2" height="6" fill="#374151"/>
  
  <!-- Геометрическая A -->
  <rect x="76" y="8" width="2" height="12" fill="#374151"/>
  <rect x="76" y="8" width="8" height="2" fill="#374151"/>
  <rect x="76" y="14" width="8" height="2" fill="#374151"/>
  <rect x="82" y="8" width="2" height="12" fill="#374151"/>
  
  <!-- Геометрическая R -->
  <rect x="88" y="8" width="2" height="12" fill="#374151"/>
  <rect x="88" y="8" width="6" height="2" fill="#374151"/>
  <rect x="88" y="14" width="6" height="2" fill="#374151"/>
  <rect x="92" y="10" width="2" height="6" fill="#374151"/>
  
  <!-- Геометрическая T -->
  <rect x="96" y="8" width="2" height="12" fill="#374151"/>
  <rect x="94" y="8" width="8" height="2" fill="#374151"/>
</svg>
