<svg width="130" height="36" viewBox="0 0 130 36" fill="none" xmlns="http://www.w3.org/2000/svg">
  <defs>
    <linearGradient id="geometricGradient2" x1="0%" y1="0%" x2="100%" y2="0%">
      <stop offset="0%" style="stop-color:#3B82F6;stop-opacity:1" />
      <stop offset="100%" style="stop-color:#1D4ED8;stop-opacity:1" />
    </linearGradient>
  </defs>
  
  <!-- Фон -->
  <rect width="130" height="36" fill="var(--color-gray-200)"/>
  
  <!-- Геометрическая L -->
  <rect x="6" y="6" width="6" height="24" fill="url(#geometricGradient2)"/>
  <rect x="6" y="24" width="18" height="6" fill="url(#geometricGradient2)"/>
  
  <!-- Геометрическая V -->
  <rect x="30" y="6" width="4" height="12" fill="#374151"/>
  <rect x="40" y="6" width="4" height="12" fill="#374151"/>
  <rect x="35" y="18" width="4" height="12" fill="#374151"/>
  
  <!-- Геометрическая L -->
  <rect x="50" y="6" width="4" height="24" fill="#374151"/>
  <rect x="50" y="24" width="16" height="6" fill="#374151"/>
  
  <!-- Геометрическая M -->
  <rect x="72" y="6" width="4" height="24" fill="#374151"/>
  <rect x="84" y="6" width="4" height="24" fill="#374151"/>
  <rect x="78" y="6" width="4" height="12" fill="#374151"/>
  
  <!-- Геометрическая A -->
  <rect x="94" y="6" width="4" height="24" fill="#374151"/>
  <rect x="94" y="6" width="16" height="4" fill="#374151"/>
  <rect x="94" y="18" width="16" height="4" fill="#374151"/>
  <rect x="106" y="6" width="4" height="24" fill="#374151"/>
  
  <!-- Геометрическая R -->
  <rect x="116" y="6" width="4" height="24" fill="#374151"/>
  <rect x="116" y="6" width="12" height="4" fill="#374151"/>
  <rect x="116" y="18" width="12" height="4" fill="#374151"/>
  <rect x="124" y="12" width="4" height="12" fill="#374151"/>
  
  <!-- Геометрическая T -->
  <rect x="130" y="6" width="4" height="24" fill="#374151"/>
  <rect x="126" y="6" width="16" height="4" fill="#374151"/>
</svg>
