<svg width="140" height="40" viewBox="0 0 140 40" fill="none" xmlns="http://www.w3.org/2000/svg">
  <defs>
    <linearGradient id="geometricGradient3" x1="0%" y1="0%" x2="100%" y2="0%">
      <stop offset="0%" style="stop-color:#3B82F6;stop-opacity:1" />
      <stop offset="100%" style="stop-color:#1D4ED8;stop-opacity:1" />
    </linearGradient>
  </defs>
  
  <!-- Фон -->
  <rect width="140" height="40" fill="var(--color-gray-200)"/>
  
  <!-- Геометрическая L - крупные блоки -->
  <rect x="8" y="8" width="8" height="24" fill="url(#geometricGradient3)"/>
  <rect x="8" y="24" width="20" height="8" fill="url(#geometricGradient3)"/>
  
  <!-- Геометрическая V -->
  <rect x="36" y="8" width="6" height="16" fill="#374151"/>
  <rect x="48" y="8" width="6" height="16" fill="#374151"/>
  <rect x="42" y="24" width="6" height="8" fill="#374151"/>
  
  <!-- Геометрическая L -->
  <rect x="60" y="8" width="6" height="24" fill="#374151"/>
  <rect x="60" y="24" width="18" height="8" fill="#374151"/>
  
  <!-- Геометрическая M -->
  <rect x="84" y="8" width="6" height="24" fill="#374151"/>
  <rect x="96" y="8" width="6" height="24" fill="#374151"/>
  <rect x="90" y="8" width="6" height="16" fill="#374151"/>
  
  <!-- Геометрическая A -->
  <rect x="108" y="8" width="6" height="24" fill="#374151"/>
  <rect x="108" y="8" width="18" height="6" fill="#374151"/>
  <rect x="108" y="20" width="18" height="6" fill="#374151"/>
  <rect x="120" y="8" width="6" height="24" fill="#374151"/>
  
  <!-- Геометрическая R -->
  <rect x="132" y="8" width="6" height="24" fill="#374151"/>
  <rect x="132" y="8" width="14" height="6" fill="#374151"/>
  <rect x="132" y="20" width="14" height="6" fill="#374151"/>
  <rect x="142" y="14" width="6" height="12" fill="#374151"/>
  
  <!-- Геометрическая T -->
  <rect x="154" y="8" width="6" height="24" fill="#374151"/>
  <rect x="150" y="8" width="18" height="6" fill="#374151"/>
</svg>
